PathFileType	4	(X/Y/Z)	/home/abdul/Desktop/myosuite/custom_workspace/IK/output/S4_12_1.trc
DataRate	CameraRate	NumFrames	NumMarkers	Units	OrigDataRate	OrigDataStartFrame	OrigNumFrames
200.0	200.0	39	3	mm	200.0	1	1130
Frame#	Time	V_Shoulder			V_Elbow			V_Wrist		
		X1	Y1	Z1	X2	Y2	Z2	X3	Y3	Z3

1	0.0	-92.29179300146153	601.8253936542282	272.8163642604808	-195.45289392517623	435.64034990199855	39.18127168894973	-225.60752263742148	213.54179848978333	27.765754983822028
2	0.005	-92.30020101784494	601.8459710656048	272.8189800023599	-195.44419500398226	435.6588726650507	39.173141161109044	-225.5810290482135	213.56415030136054	27.795898007003437
3	0.01	-92.30846237011434	601.8673043459875	272.82193491593546	-195.43514514415702	435.6761635957281	39.166708230627194	-225.55307050927632	213.5854975662063	27.82618406761049
4	0.015	-92.31655708773445	601.8893869237345	272.82523756487996	-195.42575702160178	435.6920907267799	39.16208978459569	-225.52368839697934	213.60569989326848	27.856502330823226
5	0.02	-92.32446546611585	601.9122102501259	272.828895716971	-195.41604518240706	435.7065210974092	39.15940144290699	-225.49293189238793	213.6246145288888	27.886736570155144
6	0.025	-92.3321681472974	601.9357637350682	272.8329162813799	-195.40602608781035	435.7193212461467	39.158757039954736	-225.46085816530314	213.64209682615308	27.916765378873812
7	0.03	-92.33964620071606	601.9600346844896	272.83730524665043	-195.39571815502347	435.7303577305326	39.16026808854464	-225.42753253476266	213.6580007460911	27.946462413210742
8	0.035	-92.34688120370197	601.9850082396637	272.84206761964333	-195.3851417935756	435.73949767288354	39.164043227239276	-225.39302860417416	213.6721793903406	27.97569666797883
9	0.04	-92.35385532133785	602.0106673187196	272.84720736571836	-195.3743194368024	435.74660933129235	39.1701876524526	-225.35742836926613	213.68448556474652	28.004332785111764
10	0.045	-92.3605513853261	602.0369925606082	272.85272735043014	-195.36327556810073	435.7515626948716	39.17880253669996	-225.32082229706424	213.69477237322255	28.032231395528363
11	0.05	-92.36695297151311	602.0639622718094	272.85862928300713	-195.35203674155306	435.7542301021148	39.18998443449635	-225.28330937413307	213.70289384105007	28.059249494606547
12	0.055	-92.3730444757275	602.0915523760779	272.86491366188324	-195.34063159651447	435.7544868811116	39.20382467748087	-225.24499712236286	213.70870556663715	28.08524085142617
13	0.06	-92.37881118759866	602.1197363675408	272.87157972254397	-195.3290908657432	435.75221201021066	39.22040876042816	-225.20600158062732	213.71206540060163	28.110056451808624
14	0.065	-92.38423936203316	602.148485267468	272.8786253879448	-195.31744737664638	435.74728879758266	39.23981571988882	-225.16644725069813	213.7128341508825	28.13354497504312
15	0.07	-92.38931628803816	602.1777675850484	272.8860472217509	-195.30573604520353	435.7396055779948	39.26211750728018	-225.12646700586572	213.71087631242165	28.155553304046556
16	0.075	-92.39403035459459	602.2075492825155	272.8938403846409	-195.29399386212472	435.729056424963	39.28737835832641	-225.08620196079244	213.70606081979182	28.175927068555453
17	0.08	-92.39837111329784	602.2377937449713	272.90199859390583	-195.2822598707952	435.71554187630926	39.31565416082296	-225.04580130120604	213.6982618209812	28.19451122079527
18	0.085	-92.40232933749787	602.2684617552637	272.9105140865679	-195.27057513655723	435.698969671006	39.34699182277513	-225.00542207213778	213.6873594703785	28.211150642915342
19	0.09	-92.40589707768743	602.2995114742798	272.9193775862289	-195.25898270688108	435.6792554950526	39.38142864303281	-224.96522892350845	213.67324073883373	28.225690785316456
20	0.095	-92.40906771290355	602.3308984270142	272.9285782738506	-195.24752756198052	435.65632373398927	39.41899168661478	-224.9253938119796	213.65580023850464	28.237978334834366
21	0.1	-92.4118359979243	602.3625754947806	272.93810376265577	-195.23625655543628	435.63010822952026	39.459697166984654	-224.88609565810637	213.6349410600327	28.247861911575416
22	0.105	-92.41419810606067	602.394492913922	272.947940077326	-195.2252183444017	435.60055303758384	39.50354983760748	-224.8475199579585	213.61057561942914	28.255192793032002
23	0.11	-92.41615166736075	602.4265982813837	272.9580716376609	-195.21446330897774	435.56761318508063	39.550542395179995	-224.8098583485151	213.58262651189017	28.25982566393516
24	0.115	-92.41769580206225	602.458836567496	272.9684812468484	-195.20404346036594	435.5312554223475	39.600654896989205	-224.7733081262857	213.551027369605	28.2616193901305
25	0.12	-92.4188311491459	602.4911501363141	272.97915008448314	-195.19401233742602	435.49145896834756	39.65385419491194	-224.73807171876683	213.51572372046624	28.260437814592397
26	0.125	-92.41955988986233	602.5234787738463	272.99005770445825	-195.18442489129507	435.44821624543243	39.71009338862275	-224.70435610850808	213.47667384444526	28.256150573520216
27	0.13	-92.41988576612073	602.555759724488	273.0011820378375	-195.17533735775274	435.4015336004319	39.76931130062759	-224.6723722097346	213.43384962425367	28.248633930290445
28	0.135	-92.41981409364796	602.5879277359701	273.0124994008043	-195.16680711705405	435.3514320087255	39.831431975786735	-224.6423341976543	213.38723738677788	28.237771624870238
29	0.14	-92.4193517698418	602.6199151131009	273.02398450776883	-195.15889254098823	435.2979477578645	39.896364208030256	-224.6144587907669	213.33683873164753	28.223455736131967
30	0.145	-92.418507276262	602.6516517805695	273.03561048969885	-195.15165282696742	435.2411331072318	39.964001097004086	-224.58896448668725	213.2826713431802	28.205587554345513
31	0.15	-92.41729067571804	602.6830653550477	273.047348917726	-195.14514781899496	435.1810569201581	40.034219637412164	-224.56607075219958	213.22476978183812	28.184078460965978
32	0.155	-92.4157136039302	602.7140812268021	273.0591698320652	-195.13943781541633	435.11780526485563	40.1068803438406	-224.54599716846755	213.16318625123483	28.158850812679987
33	0.16	-92.41378925575714	602.7446226510025	273.07104177626826	-195.13458336341003	435.0514819804812	40.18182691386194	-224.52896253254193	213.09799133664336	28.129838826524463
34	0.165	-92.41153236599898	602.7746108488719	273.08293183681985	-195.13064504023697	434.9822092046086	40.25888593222085	-224.51518391652604	213.02927471088572	28.096989462748667
35	0.17	-92.40895918480055	602.8039651187963	273.0948056880675	-195.1276832213297	434.9101278583671	40.337866618896236	-224.50487568598734	212.95714580342263	28.060263301953704
36	0.175	-92.40608744769547	602.8326029574674	273.10662764246257	-195.12575783537045	434.8353980854969	40.418560623817584	-224.49824847943017	212.88173442841662	28.0196354129153
37	0.18	-92.40293634034579	602.8604401910969	273.1183607060744	-195.12492810657614	434.7581996415794	40.50074187098494	-224.49550815088003	212.8031913675116	27.97509620737505
38	0.185	-92.39952645804692	602.8873911166896	273.12996663932387	-195.12525228448362	434.67873222972366	40.58416645470155	-224.49685467786458	212.72168890305625	27.926652277974487
39	0.19	-92.39587976008214	602.9133686533245	273.1414060228674	-195.12678736160257	434.5972157790293	40.668572590574016	-224.50248103731286	212.6374212975012	27.87432721540531
